<svg width="128" height="128" viewBox="0 0 128 128" fill="none" xmlns="http://www.w3.org/2000/svg">
<g clip-path="url(#clip0_320_559)">
<circle cx="64" cy="64" r="64" fill="white"/>
<path d="M80.2377 70.0001L70 80.8989L87.6834 101.21C101.086 104.777 101.179 95.4305 98.8518 89.816L80.2377 70.0001Z" fill="#189CF4"/>
<path d="M45.2175 57.7867L55.8458 47.246L38.7534 26.3379C25.4166 22.3122 25.021 31.6503 27.1748 37.3417L45.2175 57.7867Z" fill="#189CF4"/>
<path d="M59 81.5791L48.4418 71.0001L28.7653 89.2729C25.3099 103.122 34.3643 103.218 39.8033 100.814L59 81.5791Z" fill="#189CF4"/>
<path d="M71.389 45.5348L81.6334 56.4706L101.954 38.8837C105.866 25.1612 96.7906 24.7541 91.2592 26.9702L71.389 45.5348Z" fill="#189CF4"/>
<path d="M52.6783 21.2495C53.9843 33.2342 60.8555 41.8168 63.642 44.616C69.4088 39.0445 74.5442 20.9798 72.5132 13.5043C70.8884 7.52395 64.9675 5.43014 62.2101 5.13079C58.4887 5.51004 51.3724 9.26473 52.6783 21.2495Z" fill="#189CF4"/>
<path d="M73.8107 108.824C73.3378 96.7736 67.0782 87.7092 64.4926 84.7129C58.3546 89.8476 51.9817 107.49 53.49 115.095C54.6966 121.18 60.4575 123.702 63.1871 124.203C66.9254 124.097 74.2836 120.874 73.8107 108.824Z" fill="#189CF4"/>
<path d="M109.608 52.1304C98.0633 53.3276 89.7257 60.2781 87 63.1048C92.2911 69.0909 109.608 74.5781 116.823 72.5827C122.595 70.9864 124.679 64.9339 125 62.1071C124.679 58.2827 121.152 50.9332 109.608 52.1304Z" fill="#189CF4"/>
<path d="M19.3924 72.8699C30.9367 71.6726 39.2743 64.7222 42 61.8954C36.7089 55.9094 19.3924 50.4222 12.1772 52.4175C6.40506 54.0138 4.32067 60.0664 4 62.8931C4.32067 66.7175 7.8481 74.0671 19.3924 72.8699Z" fill="#189CF4"/>
<rect width="15.7827" height="15.7827" transform="matrix(0.696955 0.717115 -0.696955 0.717115 63.5942 52.125)" fill="#189CF4"/>
</g>
<defs>
<clipPath id="clip0_320_559">
<rect width="128" height="128" fill="white"/>
</clipPath>
</defs>
</svg>
