<svg width="128" height="128" viewBox="0 0 128 128" fill="none" xmlns="http://www.w3.org/2000/svg">
<rect width="128" height="128" fill="white"/>
<path d="M80.579 69.1248L70 80.0235L88.2728 100.335C102.122 103.902 102.218 94.5552 99.8135 88.9407L80.579 69.1248Z" fill="#189CF4"/>
<path d="M44.4097 56.7864L55.3455 46.2457L37.7586 25.3376C24.0361 21.312 23.629 30.6501 25.8452 36.3415L44.4097 56.7864Z" fill="#189CF4"/>
<path d="M58.9999 80.7038L48.1012 70.1248L27.7899 88.3976C24.223 102.246 33.5695 102.343 39.184 99.9383L58.9999 80.7038Z" fill="#189CF4"/>
<path d="M71.3383 44.5345L81.879 55.4703L102.787 37.8834C106.813 24.1609 97.4746 23.7538 91.7832 25.97L71.3383 44.5345Z" fill="#189CF4"/>
<path d="M52.0863 20.2495C53.4301 32.2342 60.5001 40.8168 63.3672 43.616C69.3008 38.0445 74.5847 19.9798 72.495 12.5043C70.8232 6.52395 64.731 4.43014 61.8939 4.13079C58.0648 4.51004 50.7426 8.26473 52.0863 20.2495Z" fill="#189CF4"/>
<path d="M73.83 107.823C73.3434 95.7733 66.9027 86.709 64.2423 83.7127C57.9269 88.8473 51.3696 106.49 52.9215 114.095C54.163 120.179 60.0906 122.702 62.8991 123.202C66.7455 123.097 74.3166 119.873 73.83 107.823Z" fill="#189CF4"/>
<path d="M110.5 51.2553C98.5 52.4553 89.8333 59.422 87 62.2553C92.5 68.2553 110.5 73.7553 118 71.7553C124 70.1553 126.167 64.0887 126.5 61.2553C126.167 57.422 122.5 50.0553 110.5 51.2553Z" fill="#189CF4"/>
<path d="M18 72.043C30 70.843 38.6667 63.8764 41.5 61.043C36 55.043 18 49.543 10.5 51.543C4.5 53.143 2.33333 59.2097 2 62.043C2.33333 65.8763 6 73.243 18 72.043Z" fill="#189CF4"/>
<rect x="63.318" y="51.1248" width="16.0061" height="16.0061" transform="rotate(45 63.318 51.1248)" fill="#189CF4"/>
</svg>

